<?xml version="1.0" encoding="utf-8"?>
<!-- Generator: Adobe Illustrator 23.0.3, SVG Export Plug-In . SVG Version: 6.00 Build 0)  -->
<svg version="1.1" id="Layer_1" xmlns="http://www.w3.org/2000/svg" xmlns:xlink="http://www.w3.org/1999/xlink" x="0px" y="0px"
	 viewBox="0 0 1029.2 515.7" style="enable-background:new 0 0 1029.2 515.7;" xml:space="preserve">
<style type="text/css">
	.st0{fill:#909191;}
	.st1{fill:#651A15;}
</style>
<g>
	<path class="st0" d="M199,56.8c0,2.3-0.6,4.3-1.8,6c-1.2,1.7-2.8,3-4.9,3.9c-2.3,0.9-4.8,1.4-7.3,1.3c-0.8,0-1.7-0.1-2.8-0.1
		s-2.6-0.4-4.4-0.8c-2-0.5-3.9-1.2-5.7-2v-9.1c1.9,1.2,3.7,2.1,5.5,2.9s3.7,1.1,5.8,1.1c1.9,0,3.1-0.3,3.7-0.9
		c0.6-0.6,0.8-1.2,0.8-1.8c0-1-0.5-1.8-1.4-2.5c-1.3-0.9-2.7-1.6-4.2-2.1c-1.9-0.8-3.6-1.7-5.3-2.8c-1.5-1-2.8-2.3-3.7-3.8
		c-1-1.6-1.5-3.5-1.5-5.4c0-2,0.5-3.8,1.5-5.4c1-1.6,2.5-2.9,4.5-3.9c2-1,4.5-1.4,7.4-1.4c2.1,0,4,0.2,5.7,0.6
		c1.7,0.4,3.2,0.8,4.3,1.3c1.1,0.5,1.9,0.9,2.3,1.2v8.7c-1.6-1.1-3.3-2.1-5.1-2.9c-1.9-0.9-3.9-1.3-6-1.3c-1.4,0-2.4,0.3-3,0.8
		c-0.6,0.5-0.9,1.2-0.9,2c0,0.7,0.3,1.4,0.9,1.9c0.6,0.5,1.7,1.2,3.3,2c2.8,1.3,5.1,2.5,6.8,3.6c1.7,1.1,3,2.3,4,3.7
		C198.5,53,199,54.8,199,56.8L199,56.8z M246.1,49.1c0,3.4-0.8,6.6-2.4,9.5c-1.6,2.9-4,5.2-7.1,6.9c-3.1,1.7-7,2.6-11.5,2.6
		c-4.6,0-8.4-0.9-11.6-2.7c-3.2-1.8-5.5-4.1-7.1-7c-1.5-2.9-2.3-6.1-2.3-9.3c0-3.3,0.8-6.4,2.3-9.3c1.5-2.9,3.9-5.2,7.1-7
		c3.2-1.8,7-2.7,11.6-2.7c3.4,0,6.5,0.5,9.1,1.5c2.5,0.9,4.7,2.3,6.6,4.1c1.7,1.7,3,3.7,3.9,6C245.6,44.1,246.1,46.6,246.1,49.1
		L246.1,49.1z M234.7,49.1c0-1.4-0.2-2.7-0.6-3.8c-0.8-2.3-2.6-4.1-4.9-5c-1.3-0.5-2.7-0.7-4.1-0.7c-3,0-5.3,0.9-7,2.6
		s-2.6,4-2.6,6.9c0,2.8,0.9,5.1,2.6,6.9c1.7,1.7,4.1,2.6,7,2.6c2,0,3.8-0.4,5.2-1.2c1.4-0.8,2.5-1.9,3.3-3.4
		C234.4,52.5,234.8,50.8,234.7,49.1L234.7,49.1z M281.1,67.6H253v-37h11.1v28.1h16.9L281.1,67.6L281.1,67.6z M324,49.1
		c0,3.4-0.8,6.6-2.4,9.5c-1.6,2.9-4,5.2-7.1,6.9c-3.1,1.7-7,2.6-11.5,2.6c-4.6,0-8.4-0.9-11.6-2.7c-3.2-1.8-5.5-4.1-7.1-7
		c-1.5-2.9-2.3-6.1-2.3-9.3c0-3.3,0.8-6.4,2.3-9.3c1.5-2.9,3.9-5.2,7.1-7c3.2-1.8,7-2.7,11.6-2.7c3.4,0,6.5,0.5,9.1,1.5
		c2.7,1,4.9,2.4,6.6,4.1c1.7,1.7,3,3.7,3.9,6C323.6,44.1,324,46.6,324,49.1L324,49.1z M312.6,49.1c0-1.4-0.2-2.7-0.6-3.8
		c-0.8-2.3-2.6-4.1-4.9-5c-1.3-0.5-2.7-0.7-4.1-0.7c-3,0-5.3,0.9-7,2.6c-1.7,1.7-2.6,4-2.6,6.9c0,2.8,0.9,5.1,2.6,6.9
		c1.7,1.7,4.1,2.6,7,2.6c2,0,3.8-0.4,5.2-1.2c1.4-0.8,2.5-1.9,3.3-3.4C312.3,52.5,312.7,50.8,312.6,49.1L312.6,49.1z M373.9,67.6
		h-11.2V46.2l-10,12.4h-0.9l-10.1-12.4v21.4h-10.8v-37h10.1l11.4,13.9l11.4-13.9h10.1L373.9,67.6L373.9,67.6z M422.8,49.1
		c0,3.4-0.8,6.6-2.4,9.5c-1.6,2.9-4,5.2-7.1,6.9c-3.1,1.7-7,2.6-11.5,2.6c-4.6,0-8.4-0.9-11.6-2.7c-3.2-1.8-5.5-4.1-7.1-7
		c-1.5-2.9-2.3-6.1-2.3-9.3c0-3.3,0.8-6.4,2.3-9.3c1.5-2.9,3.9-5.2,7.1-7c3.2-1.8,7-2.7,11.6-2.7c3.4,0,6.5,0.5,9.1,1.5
		c2.7,1,4.9,2.4,6.6,4.1c1.7,1.7,3,3.7,3.9,6C422.4,44.1,422.8,46.6,422.8,49.1L422.8,49.1z M411.5,49.1c0-1.4-0.2-2.7-0.6-3.8
		c-0.4-1.1-1-2.1-1.9-3c-0.9-0.9-1.9-1.5-3-2c-1.3-0.5-2.7-0.7-4.1-0.7c-3,0-5.3,0.9-7,2.6c-1.7,1.7-2.6,4-2.6,6.9
		c0,2.8,0.9,5.1,2.6,6.9c1.7,1.7,4.1,2.6,7,2.6c2,0,3.8-0.4,5.2-1.2c1.4-0.8,2.5-1.9,3.3-3.4C411.1,52.6,411.5,50.9,411.5,49.1
		L411.5,49.1z M469.1,67.6h-9.9L440,47v20.6h-11v-37h9.9L458,51.1V30.6h11.1L469.1,67.6L469.1,67.6z M534.7,67.6h-9.9L505.7,47v20.6
		h-11v-37h9.9l19.1,20.5V30.6h11.1V67.6z M583.6,49.1c0,3.4-0.8,6.6-2.4,9.5c-1.6,2.9-4,5.2-7.1,6.9c-3.1,1.7-7,2.6-11.5,2.6
		c-4.6,0-8.4-0.9-11.6-2.7c-3.2-1.8-5.5-4.1-7.1-7c-1.5-2.9-2.3-6.1-2.3-9.3c0-3.3,0.8-6.4,2.3-9.3c1.5-2.9,3.9-5.2,7.1-7
		c3.2-1.8,7-2.7,11.6-2.7c3.4,0,6.5,0.5,9.1,1.5c2.5,0.9,4.7,2.3,6.6,4.1c1.7,1.7,3,3.7,3.9,6C583.1,44.1,583.6,46.6,583.6,49.1
		L583.6,49.1z M572.2,49.1c0-1.4-0.2-2.7-0.6-3.8c-0.8-2.3-2.6-4.1-4.9-5c-1.3-0.5-2.7-0.7-4.1-0.7c-3,0-5.3,0.9-7,2.6
		c-1.7,1.7-2.6,4-2.6,6.9c0,2.8,0.9,5.1,2.6,6.9c1.7,1.7,4.1,2.6,7,2.6c2,0,3.8-0.4,5.2-1.2c1.4-0.8,2.5-1.9,3.3-3.4
		C571.8,52.6,572.2,50.9,572.2,49.1L572.2,49.1z M626.3,67.6h-12l-2.9-6.6c-1.1-2.4-2-4.2-2.9-5.3c-0.8-1.1-1.7-1.8-2.5-2.1
		s-1.9-0.5-3.1-0.5h-1.3v14.4h-11.1v-37h19c3.1,0,5.6,0.6,7.5,1.9c2,1.2,3.4,2.8,4.2,4.5c0.9,1.8,1.3,3.5,1.3,5.1
		c0,1.9-0.4,3.4-1.1,4.7c-0.7,1.3-1.5,2.2-2.3,2.8s-1.7,1.1-2.7,1.7c1.2,0.7,2.2,1.5,2.9,2.5c0.8,0.9,1.8,2.9,3.2,5.8L626.3,67.6
		L626.3,67.6z M611.1,42.3c0-1.7-0.6-2.9-1.7-3.6c-1.1-0.7-2.9-1-5.5-1h-2.3v8.9h2.4c2.7,0,4.6-0.3,5.6-0.9S611.1,44,611.1,42.3
		L611.1,42.3z M664.5,39.6h-13.6v28h-11.1v-28h-13.6v-9h38.2L664.5,39.6L664.5,39.6z M710,67.6h-11.1V53.2h-16.8v14.4H671v-37h11.1
		v13.6h16.8V30.6H710V67.6z M757.8,51c0,3.2-0.6,5.9-1.8,8.1c-1.1,2.1-2.7,4-4.7,5.3c-1.9,1.3-4,2.2-6.3,2.8
		c-5.2,1.4-10.8,1.1-15.9-0.8c-2.9-1.1-5.5-2.9-7.4-5.4c-2-2.6-3-5.9-3-10V30.6h11.1v17.5c0,2.4,0.4,4.5,1.1,6
		c0.7,1.6,1.7,2.8,2.9,3.5c1.3,0.7,2.7,1.1,4.4,1.1c1.6,0,3.1-0.4,4.3-1.1c1.3-0.7,2.2-1.9,2.9-3.5s1.1-3.6,1.1-6V30.6h11.2
		L757.8,51L757.8,51z M798.5,42.3c0,1.4-0.2,2.7-0.7,4c-0.5,1.4-1.3,2.6-2.3,3.7c-1.1,1.1-2.5,2-4.3,2.7s-3.9,1.1-6.3,1.1h-7.3v13.9
		h-11.2v-37H785c2.4,0,4.5,0.4,6.3,1.1s3.2,1.6,4.3,2.8c1,1.1,1.8,2.4,2.3,3.7C798.3,39.5,798.5,40.9,798.5,42.3L798.5,42.3z
		 M787.2,42.3c0-1.8-0.5-3-1.6-3.6c-1-0.6-2.9-1-5.6-1h-2.3v8.9h2.4c1.8,0,3.3-0.1,4.3-0.3s1.7-0.7,2.2-1.3
		C787,44.4,787.2,43.5,787.2,42.3L787.2,42.3z M814.6,38.5c0,1.2-0.2,2.4-0.7,3.7c-0.5,1.3-1.3,2.5-2.2,3.6c-1.1,1.2-2.5,2.2-4,2.9
		c-1.8,0.9-3.7,1.4-5.7,1.7v-1.7c2.8-1.1,4.2-3.4,4.2-7.1V41c-2.8-0.8-4.2-2.6-4.2-5.3c0-3.1,2.6-5.6,5.7-5.6c1.5,0,2.8,0.4,3.8,1.3
		c1,0.8,1.8,1.9,2.3,3.2C814.3,35.9,814.6,37.2,814.6,38.5L814.6,38.5z M847,56.8c0,2.3-0.6,4.3-1.8,6c-1.2,1.7-3,3.1-4.9,3.9
		c-2.3,0.9-4.8,1.4-7.3,1.3c-0.8,0-1.7-0.1-2.8-0.1c-1.5-0.2-3-0.4-4.4-0.8c-2-0.5-3.9-1.1-5.7-2v-9.1c1.9,1.2,3.7,2.1,5.5,2.9
		c1.8,0.8,3.7,1.1,5.8,1.1c1.9,0,3.1-0.3,3.7-0.9c0.6-0.6,0.8-1.2,0.8-1.8c0-1-0.5-1.8-1.4-2.5c-1.3-0.9-2.7-1.6-4.2-2.1
		c-1.9-0.8-3.6-1.7-5.3-2.8c-1.5-1-2.8-2.3-3.7-3.8c-1-1.6-1.5-3.5-1.5-5.4c0-2,0.5-3.8,1.5-5.4c1-1.6,2.5-2.9,4.5-3.9
		c2-1,4.5-1.4,7.4-1.4c2,0,4,0.2,5.7,0.6c1.7,0.4,3.2,0.8,4.3,1.3c1.1,0.5,1.9,0.9,2.3,1.2v8.7c-1.6-1.1-3.3-2.1-5.1-2.9
		c-1.9-0.9-3.9-1.3-6-1.3c-1.4,0-2.4,0.3-3,0.8c-0.6,0.5-0.9,1.2-0.9,2c0,0.7,0.3,1.4,0.9,1.9c0.6,0.5,1.7,1.2,3.3,2
		c2.8,1.3,5.1,2.5,6.8,3.6c1.7,1.1,3.1,2.3,4,3.7C846.6,53,847,54.8,847,56.8L847,56.8z"/>
</g>
<g>
	<path class="st1" d="M14.9,126.6c0.3-2.5,0.4-6.2,0.4-10.1c0-4.4-0.3-13.6-0.9-22.7c12,0.4,29.3,0.4,41.2,0.4s29,0,41.1-0.4
		c-0.6,7.5-0.9,15.1-1,22.7c0,4,0.1,7.7,0.4,10.1H93c-4.5-22.5-11.5-29.7-23.9-29.7h-2.9V173c0,10.9,2.4,12.4,14.3,12.6v2.7
		c-5.7-0.2-15.6-0.4-25.4-0.4c-9.8,0-19.1,0.2-24.3,0.4v-2.7c11.8-0.1,14.3-1.7,14.3-12.6V96.9H42c-12.6,0-19.5,7.2-24,29.7H14.9
		L14.9,126.6z M203.1,93.8c6,0.3,11.1,0.4,16.6,0.4c3.9,0,7.5-0.1,10.2-0.4v2.7c-3.8,1.5-8.6,5.7-11.7,15.8l-23.5,76.2
		c-1.4-0.1-3.1-0.1-4.7-0.1s-3.1,0.1-4.6,0.1l-19.7-59.3L146,188.5c-1.4-0.1-3.1-0.1-4.7-0.1c-1.6,0-3.1,0.1-4.6,0.1L106.9,105
		c-2.3-6.4-5.9-8.4-8.4-8.5v-2.7c5.3,0.3,13.1,0.4,19.8,0.4c7.1,0,12.9-0.1,16.4-0.4v2.7c-3.5,0.5-4.7,2.4-4.7,5.2
		c0,1.8,0.5,3.8,1.2,6l19.3,56.4l13.6-39.6l-6.9-20.8c-1.8-5.5-4.4-7-7.2-7.2v-2.7c6.3,0.3,12.7,0.4,19,0.4c7.8,0,15-0.1,19.2-0.4
		v2.7c-6,0.3-9.1,0.9-9.1,4.9c0,1.6,0.5,3.6,1.4,6.2l18.3,55.8l12.7-40.4c2-6.5,3-11.6,3-15.5c0-8-4.1-10.9-11.5-11.1L203.1,93.8
		L203.1,93.8z M307,156.8c-0.3,3.7-0.4,7.5-0.4,11.2c0,4,0.1,12.2,0.9,20.2c-9-0.4-21.5-0.4-30.5-0.4c-8.9,0-28.9,0-43.4,0.4v-2.7
		c8.5-0.4,10-1.8,10-11.5V108c0-9.7-1.6-11.1-10-11.5v-2.7c14.5,0.4,34.5,0.4,43.4,0.4c8.1,0,19.7,0,27.9-0.4
		c-0.5,6.6-0.8,13.1-0.9,19.7c0,3.5,0.1,6.9,0.4,9h-3.1c-2.7-19.5-9.6-25.7-21.9-25.7H274c-7.7,0-9.2,1.2-9.2,9.5v33h4.3
		c10.7,0,14.4-10.4,15.9-17.6h3.1c-0.3,4.2-0.5,8.4-0.5,12.6c0,2.5,0.1,4.4,0.1,6.4c0,4.4,0.1,8.8,0.8,18.9h-3.1
		c-1.4-9.4-5.6-17.6-16.3-17.6h-4.3v33.6c0,8.3,1.4,9.5,9.2,9.5h6.6c11.9,0,20.1-6.9,23.4-28.4L307,156.8L307,156.8z M360.1,96.5
		c-9,0.4-10.8,1.8-10.8,11.5v67.7c0,8.3,1.4,9.5,8.4,9.5h6.5c12.3,0,21.7-12,24.3-29.8h3.1c-0.3,3.1-0.4,7.2-0.4,11.7
		c0,4.2,0.1,12.8,0.9,21.1c-9-0.4-21.5-0.4-30.5-0.4c-8.9,0-28.9,0-43.4,0.4v-2.7c8.5-0.4,10-1.8,10-11.5V108
		c0-9.7-1.6-11.1-10-11.5v-2.7c4.5,0.3,12.5,0.4,21,0.4c7.7,0,16-0.1,21-0.4L360.1,96.5L360.1,96.5z M447.7,93.8
		c5.5,0.3,11.1,0.4,16.6,0.4c3.9,0,7.5-0.1,10.2-0.4v2.7c-3.8,1.5-8.6,5.9-12.2,15.8l-28.2,76.2c-1.4-0.1-3.1-0.1-4.6-0.1
		c-1.6,0-3.2,0.1-4.6,0.1l-34-83.4c-2.5-6.4-5.8-8.4-8.4-8.5v-2.7c5.3,0.3,13,0.4,20.3,0.4c8.2,0,15.9-0.1,20.2-0.4v2.7
		c-6.2,0.3-9.4,1.1-9.4,4.9c0,1.5,0.5,3.6,1.6,6.2l23.6,59.7l16.4-44.3c2.5-6.9,3.7-12.2,3.7-16.1c0-7.4-4.1-10.3-11.2-10.5
		L447.7,93.8L447.7,93.8z M551.1,156.8c-0.3,3.7-0.4,7.5-0.4,11.2c0,4,0.1,12.2,0.9,20.2c-9-0.4-21.5-0.4-30.5-0.4
		c-8.9,0-28.9,0-43.4,0.4v-2.7c8.5-0.4,10-1.8,10-11.5V108c0-9.7-1.6-11.1-10-11.5v-2.7c14.5,0.4,34.5,0.4,43.4,0.4
		c8.1,0,19.7,0,27.9-0.4c-0.5,6.6-0.8,13.1-0.9,19.7c0,3.5,0.1,6.9,0.4,9h-3.1c-2.7-19.5-9.6-25.7-21.9-25.7h-5.5
		c-7.7,0-9.2,1.2-9.2,9.5v33h4.3c10.7,0,14.4-10.4,15.9-17.6h3.1c-0.3,4.2-0.5,8.4-0.5,12.6c0,2.5,0.1,4.4,0.1,6.4
		c0,4.4,0.1,8.8,0.8,18.9h-3.1c-1.4-9.4-5.6-17.6-16.3-17.6h-4.3v33.6c0,8.3,1.4,9.5,9.2,9.5h6.6c11.9,0,20.1-6.9,23.4-28.4
		L551.1,156.8L551.1,156.8z M639.5,93.8c6.1,0.3,11.1,0.4,16.6,0.4c3.9,0,7.5-0.1,10.2-0.4v2.7c-3.8,1.5-7.9,5.7-12.8,15.4
		L637.7,143v31c0,9.7,1.6,11.1,10,11.5v2.7c-4.8-0.3-13.1-0.4-20.5-0.4c-8.2,0-16.3,0.1-20.7,0.4v-2.7c8.5-0.4,10-1.8,10-11.5v-22.7
		L590.9,104c-3.2-5.9-5.9-7.4-7.7-7.4v-2.8c4.7,0.4,9.6,0.6,15.8,0.6c7.8,0,17.4-0.3,25.1-0.6v2.8c-5.3,0-10.1,0.5-10.1,4
		c0,0.8,0.3,1.8,0.8,2.9l20.3,38.9l10.4-20.7c3.6-7.2,5.3-12.6,5.3-16.4c0-6.3-4.4-8.7-11.1-8.9L639.5,93.8L639.5,93.8z M745,156.8
		c-0.3,3.7-0.4,7.5-0.4,11.2c0,4,0.1,12.2,0.9,20.2c-9-0.4-21.5-0.4-30.5-0.4c-8.9,0-28.9,0-43.4,0.4v-2.7c8.5-0.4,10-1.8,10-11.5
		V108c0-9.7-1.6-11.1-10-11.5v-2.7c14.5,0.4,34.5,0.4,43.4,0.4c8.1,0,19.7,0,27.9-0.4c-0.5,6.6-0.8,13.1-0.9,19.7
		c0,3.5,0.1,6.9,0.4,9h-3.1c-2.7-19.5-9.6-25.7-21.9-25.7h-5.5c-7.7,0-9.2,1.2-9.2,9.5v33h4.3c10.7,0,14.4-10.4,15.9-17.6h3.1
		c-0.3,4.2-0.5,8.4-0.5,12.6c0,2.5,0.1,4.4,0.1,6.4c0,4.4,0.1,8.8,0.8,18.9h-3.1c-1.4-9.4-5.6-17.6-16.3-17.6h-4.3v33.6
		c0,8.3,1.4,9.5,9.2,9.5h6.6c11.9,0,20.1-6.9,23.4-28.4L745,156.8L745,156.8z M833,177c2.5,6.4,5.9,8.4,8.4,8.5v2.7
		c-6.7-0.3-13.5-0.4-20.2-0.4c-8.3,0-15.9,0.1-20.3,0.4v-2.7c6.4-0.3,9.4-1.2,9.4-4.9c0-1.6-0.5-3.6-1.6-6.3l-8-21.9h-29l-3.6,9.2
		c-2.5,6.5-3.6,11.3-3.6,14.8c0,7,4.6,8.8,11.9,9v2.7c-5.5-0.3-11.1-0.4-16.6-0.4c-3.9,0-7.6,0.1-10.2,0.4v-2.7
		c3.9-0.7,7.8-4.2,11.6-14l30.3-78c3.1,0.3,6.2,0.3,9.2,0L833,177L833,177z M786.5,114l-13.8,35.9h27L786.5,114z M932.7,182.4
		c-4.8,5.5-9.9,7.7-17.7,7.7c-9.6,0-16-3.3-18-14.4l-2.3-13.3c-2-11.1-4.1-18.9-12.4-18.9h-8.7v30.7c0,9.7,1.6,11.1,10,11.5v2.7
		c-6.7-0.3-13.5-0.4-20.2-0.4c-8.5,0-16.5,0.1-21,0.4v-2.7c8.5-0.4,10-1.8,10-11.5V108c0-9.7-1.6-11.1-10-11.5v-2.7
		c4.5,0.3,12.8,0.4,20.2,0.4c8.7,0,17.6-0.3,21-0.3c24.8,0,36.9,8.5,36.9,23.2c0,10.8-6.6,23.1-29.9,25.8h0.1
		c16.1,1.4,23.2,6.5,25.6,17.6l3,13.7c1.5,7.1,3,9.6,6.3,9.6c2.3,0,3.7-1,5.4-3.1L932.7,182.4L932.7,182.4z M879.2,140.8
		c15.8,0,19.1-9.9,19.1-22.1c0-14-4.4-22.1-16.5-22.1c-6.8,0-8.3,2.3-8.3,11.5v32.8L879.2,140.8L879.2,140.8z M941,153.1
		c1.1,17.8,7.2,33.5,24.3,33.5c9.3,0,16.5-4.9,16.5-14.9c0-10.9-8.3-17.2-20-24.8c-12.7-8.1-23.8-15.6-23.8-30.4
		c0-16.8,14.3-24.3,29.9-24.3c10.4,0,15.3,2.7,19.5,5.1c2.1,1.3,3.3,1.9,4.5,1.9c1.8,0,2.4-2,3-5.9h3.1c-0.5,5.3-0.7,11.7-0.7,30.4
		h-3.1c-0.9-13.9-8.4-28.4-22.7-28.4c-8.5,0-14.6,5.1-14.6,13.6c0,10.7,8.1,15.1,23,25.1c12.6,8.4,22.5,15.6,22.5,30.1
		c0,17.6-15.2,26-33.1,26c-11.1,0-16.9-2.5-21.4-4.9c-2.1-1.4-3.5-1.9-4.6-1.9c-1.8,0-2.4,2-2.9,5.9h-3.1c0.4-6.3,0.5-14.8,0.5-36
		L941,153.1L941,153.1z"/>
</g>
<g>
	<path class="st1" d="M177.7,381c4.8,12.5,11.5,16.4,16.4,16.7v5.2c-10.3-0.5-25.3-0.8-39.6-0.8c-16.2,0-31,0.3-39.7,0.8v-5.2
		c12.5-0.5,18.3-2.4,18.3-9.5c0-3-1-7.1-3.1-12.3l-15.7-42.8H57.8l-7,18.1c-5,12.7-7.1,22-7.1,28.9c0,13.7,8.9,17.3,23.2,17.7v5.2
		c-11.8-0.5-21.6-0.8-32.4-0.8c-7.6,0-14.8,0.3-20,0.8v-5.2c7.6-1.4,15.3-8.1,22.7-27.4l59.3-152.5c2.8,0.3,5.9,0.4,9,0.4
		c3,0,6.2-0.1,9-0.4L177.7,381L177.7,381z M86.7,257.7l-27,70.1h52.8L86.7,257.7z M235.3,334.3c2.2,34.7,14.1,65.4,47.5,65.4
		c18.2,0,32.3-9.7,32.3-29.1c0-21.4-16.2-33.7-39.1-48.5c-24.8-15.8-46.4-30.4-46.4-59.4c0-32.8,27.9-47.6,58.4-47.6
		c20.4,0,29.9,5.2,38.1,10.1c4.2,2.5,6.5,3.7,8.8,3.7c3.4,0,4.7-4,5.9-11.5h6c-0.9,10.3-1.4,22.8-1.4,59.4h-6
		c-1.8-27.1-16.4-55.5-44.3-55.5c-16.7,0-28.6,10-28.6,26.6c0,21,15.9,29.5,45,49.1c24.7,16.4,44,30.5,44,58.8
		c0,34.4-29.7,50.8-64.6,50.8c-21.6,0-33.1-5-41.9-9.7c-4.2-2.7-6.9-3.7-8.9-3.7c-3.4,0-4.7,3.9-5.7,11.4h-6c0.8-12.2,1-28.9,1-70.4
		L235.3,334.3L235.3,334.3z M448.1,223.6C430.4,224.4,427,227,427,246v132.3c0,16.3,2.7,18.6,16.4,18.6h12.7
		c24,0,42.4-23.4,47.5-58.2h6c-0.5,6-0.8,14-0.8,22.9c0,8.1,0.3,24.9,1.8,41.2c-17.7-0.8-42.1-0.8-59.7-0.8c-17.4,0-56.5,0-84.9,0.8
		v-5.2c16.5-0.8,19.5-3.4,19.5-22.4V246c0-19-3-21.6-19.5-22.4v-5.2c8.8,0.5,24.4,0.8,41.1,0.8c15.1,0,31.3-0.3,41-0.8L448.1,223.6
		L448.1,223.6z M682.2,381c4.8,12.5,11.4,16.4,16.4,16.7v5.2c-10.3-0.5-25.3-0.8-39.6-0.8c-16.2,0-31.1,0.3-39.7,0.8v-5.2
		c12.5-0.5,18.3-2.4,18.3-9.5c0-3-1-7.1-3.1-12.3l-15.6-42.8h-56.6l-7,18.1c-5,12.7-7.1,22-7.1,28.9c0,13.7,8.9,17.3,23.2,17.7v5.2
		c-11.8-0.5-21.6-0.8-32.4-0.8c-7.6,0-14.8,0.3-20,0.8v-5.2c7.6-1.4,15.3-8.1,22.6-27.4l59.3-152.5c2.8,0.3,5.9,0.4,9,0.4
		c3.1,0,6.2-0.1,9-0.4L682.2,381L682.2,381z M591.2,257.7l-27,70.1H617L591.2,257.7L591.2,257.7z M792.7,218.4
		c11.7,0.5,21.6,0.8,32.5,0.8c7.6,0,14.6-0.3,19.8-0.8v5.2c-7.5,2.9-16.8,11.4-23.8,30.9l-55.1,148.9c-3-0.2-6-0.2-9-0.3
		c-3.2,0-6.2,0.1-9,0.3l-66.4-163.2c-5-12.5-11.3-16.4-16.4-16.7v-5.2c10.4,0.5,25.3,0.8,39.7,0.8c16,0,31.1-0.3,39.6-0.8v5.2
		c-12.1,0.5-18.3,2.2-18.3,9.7c0,2.9,1,7,3,12.2l46.1,116.7l32.1-86.5c5-13.5,7.3-23.8,7.3-31.6c0-14.5-8-20.1-21.9-20.5
		L792.7,218.4L792.7,218.4z M1001.4,341.4c-0.5,5.6-0.8,13.4-0.8,21.9c0,7.8,0.3,23.9,1.8,39.6c-17.7-0.8-42.1-0.8-59.7-0.8
		c-17.4,0-56.5,0-84.9,0.8v-5.2c16.5-0.8,19.5-3.4,19.5-22.4V246c0-19-3.1-21.6-19.5-22.4v-5.2c28.4,0.8,67.5,0.8,84.9,0.8
		c15.9,0,38.4,0,54.5-0.8c-1.3,15.4-1.8,31-1.8,38.6c0,6.9,0.3,13.5,0.8,17.7h-6c-5.2-38.2-18.8-50.3-42.8-50.3h-10.7
		c-15.1,0-17.9,2.3-17.9,18.6v64.5h8.4c20.9,0,28.3-20.2,31-34.4h6c-0.6,8.2-0.9,16.4-0.9,24.6c0,4.8,0.1,8.7,0.1,12.5
		c0,8.5,0.3,17.2,1.5,37h-6c-2.7-18.3-10.9-34.5-31.8-34.5h-8.4v65.7c0,16.3,2.8,18.6,17.9,18.6h12.9c23.3,0,39.3-13.5,45.8-55.5
		L1001.4,341.4L1001.4,341.4z"/>
</g>
<g>
	<path class="st0" d="M25.6,439.3h22.2v5.9H33.2v9.3h13.4v5.9H33.2v10.6H48v5.9H25.6V439.3L25.6,439.3z M53.1,465.5v-5.9h14.2v5.9
		H53.1z M73.6,439.3h13.2c4.9,0,12.1,1.4,12.1,9.7c0,4.5-3,7.6-7.5,8.4v0.1c5.1,0.5,8.6,3.9,8.6,8.6c0,9.5-8.5,10.9-13.3,10.9H73.6
		L73.6,439.3L73.6,439.3z M81.1,454.6h3.1c3.2,0,7.1-0.7,7.1-4.6c0-4.4-3.8-4.7-7.3-4.7h-2.9L81.1,454.6L81.1,454.6z M81.1,471.1
		h3.6c3.5,0,7.8-0.9,7.8-5.2c0-4.9-4-5.7-7.8-5.7h-3.6V471.1z M123.2,438.7c11.8,0,18.5,8,18.5,19.4s-6.5,19.6-18.5,19.6
		c-12.1,0-18.5-8-18.5-19.6C104.7,446.5,111.2,438.7,123.2,438.7z M123.2,471.7c7.7,0,10.6-6.9,10.6-13.7c0-6.6-3.1-13.4-10.6-13.4
		c-7.5,0-10.6,6.8-10.6,13.4C112.6,464.9,115.4,471.7,123.2,471.7z M165.1,438.7c11.8,0,18.5,8,18.5,19.4s-6.5,19.6-18.5,19.6
		c-12.1,0-18.5-8-18.5-19.6C146.7,446.5,153.2,438.7,165.1,438.7z M165.1,471.7c7.7,0,10.6-6.9,10.6-13.7c0-6.6-3.1-13.4-10.6-13.4
		c-7.5,0-10.6,6.8-10.6,13.4C154.6,464.9,157.4,471.7,165.1,471.7z M190.5,439.3h7.6v16.2l13.6-16.2h9.3l-15.5,17.8l16.1,19.9h-9.9
		l-13.6-17.5h-0.1V477h-7.6L190.5,439.3L190.5,439.3z M255.3,436.5h5.6v41.1h-5.6V436.5z M309.3,439.3h8.5l14.8,37.7h-8.4l-3.2-8.6
		h-15.3l-3.3,8.6h-7.8L309.3,439.3L309.3,439.3z M313.4,446.9h-0.1l-5.5,15.6h11L313.4,446.9L313.4,446.9z M337.2,439.3h7.6v21.8
		c0,6.4,2,10.6,7.8,10.6c5.8,0,7.8-4.2,7.8-10.6v-21.8h7.6v24.1c0,10.1-5.7,14.3-15.4,14.3c-9.7,0-15.4-4.2-15.4-14.3V439.3z
		 M376.4,439.3h10.3c11.6,0,21.8,3.9,21.8,18.8c0,15-10.2,18.8-21.8,18.8h-10.3V439.3z M384,471.1h4.2c6.3,0,12.4-4.7,12.4-12.9
		c0-8.2-6.1-12.9-12.4-12.9H384V471.1z M414.7,439.3h7.6V477h-7.6V439.3z M447,438.7c11.8,0,18.5,8,18.5,19.4s-6.5,19.6-18.5,19.6
		c-12.1,0-18.5-8-18.5-19.6C428.5,446.5,435,438.7,447,438.7z M447,471.7c7.7,0,10.6-6.9,10.6-13.7c0-6.6-3.1-13.4-10.6-13.4
		c-7.5,0-10.6,6.8-10.6,13.4C436.4,464.9,439.3,471.7,447,471.7z M472.3,439.3h13.2c4.9,0,12.1,1.4,12.1,9.7c0,4.5-3,7.6-7.5,8.4
		v0.1c5.1,0.5,8.6,3.9,8.6,8.6c0,9.5-8.5,10.9-13.3,10.9h-13.2L472.3,439.3L472.3,439.3z M479.9,454.6h3.1c3.2,0,7.1-0.7,7.1-4.6
		c0-4.4-3.8-4.7-7.3-4.7h-2.9L479.9,454.6L479.9,454.6z M479.9,471.1h3.6c3.5,0,7.8-0.9,7.8-5.2c0-4.9-4-5.7-7.8-5.7h-3.6V471.1z
		 M521.9,438.7c11.8,0,18.5,8,18.5,19.4s-6.5,19.6-18.5,19.6c-12.1,0-18.5-8-18.5-19.6C503.5,446.5,510,438.7,521.9,438.7z
		 M521.9,471.7c7.7,0,10.6-6.9,10.6-13.7c0-6.6-3.1-13.4-10.6-13.4c-7.5,0-10.6,6.8-10.6,13.4C511.4,464.9,514.2,471.7,521.9,471.7z
		 M563.9,438.7c11.8,0,18.5,8,18.5,19.4s-6.5,19.6-18.5,19.6c-12.1,0-18.5-8-18.5-19.6C545.5,446.5,551.9,438.7,563.9,438.7z
		 M563.9,471.7c7.7,0,10.6-6.9,10.6-13.7c0-6.6-3.1-13.4-10.6-13.4c-7.5,0-10.6,6.8-10.6,13.4C553.3,464.9,556.2,471.7,563.9,471.7z
		 M589.3,439.3h7.6v16.2l13.6-16.2h9.3l-15.5,17.8l16.1,19.9h-9.9l-13.6-17.5h-0.1V477h-7.6L589.3,439.3L589.3,439.3z M654.1,436.5
		h5.6v41.1h-5.6V436.5z M696.6,439.3h9.5c8.2,0,15.7,2.4,15.7,11.4c0,8.8-6.4,12-14.5,12h-3.2V477h-7.6L696.6,439.3L696.6,439.3z
		 M704.2,456.8h2.6c3.8,0,7.2-1.2,7.2-5.6s-3.3-5.9-7.2-5.9h-2.6V456.8L704.2,456.8z M734.1,439.3h8.5l14.8,37.7H749l-3.2-8.6h-15.3
		l-3.3,8.6h-7.8L734.1,439.3L734.1,439.3z M738.2,446.9h-0.1l-5.4,15.6h11L738.2,446.9L738.2,446.9z M761.6,439.3h9.5
		c8.2,0,15.7,2.4,15.7,11.4c0,8.8-6.4,12-14.5,12h-3.2V477h-7.6L761.6,439.3L761.6,439.3z M769.1,456.8h2.6c3.8,0,7.2-1.2,7.2-5.6
		s-3.3-5.9-7.2-5.9h-2.6V456.8L769.1,456.8z M792.2,439.3h22.2v5.9h-14.7v9.3h13.4v5.9h-13.4v10.6h14.8v5.9h-22.4V439.3L792.2,439.3
		z M821.6,439.3h8.2c8.1,0,17.8-0.3,17.8,10.2c0,4.4-3,8.1-7.8,8.7v0.1c2,0.2,3.2,2.2,4,3.9l6,14.7h-8.4l-4.5-11.8
		c-1.1-2.8-2-3.9-5.2-3.9h-2.4V477h-7.6L821.6,439.3L821.6,439.3z M829.1,455.4h2.5c3.7,0,8-0.5,8-5.2c0-4.5-4.2-4.9-8-4.9h-2.5
		V455.4z M855.2,439.3h13.2c4.9,0,12.1,1.4,12.1,9.7c0,4.5-3,7.6-7.5,8.4v0.1c5.1,0.5,8.6,3.9,8.6,8.6c0,9.5-8.5,10.9-13.3,10.9
		h-13.2L855.2,439.3L855.2,439.3z M862.8,454.6h3.1c3.2,0,7.1-0.7,7.1-4.6c0-4.4-3.8-4.7-7.3-4.7h-2.9L862.8,454.6L862.8,454.6z
		 M862.8,471.1h3.6c3.5,0,7.8-0.9,7.8-5.2c0-4.9-4-5.7-7.8-5.7h-3.6V471.1z M899,439.3h8.5l14.8,37.7h-8.4l-3.2-8.6h-15.3l-3.3,8.6
		h-7.8L899,439.3L899,439.3z M903.1,446.9H903l-5.4,15.6h11L903.1,446.9L903.1,446.9z M954.6,476.5c-2.8,0.6-5.7,1.2-8.6,1.2
		c-12.2,0-20.7-6.1-20.7-18.8c0-12.9,7.9-20.1,20.7-20.1c2.5,0,5.8,0.5,8.5,1.6l-0.5,6.4c-2.9-1.6-5.4-2-8.2-2
		c-7.8,0-12.6,5.9-12.6,13.7c0,7.7,4.8,13.4,12.8,13.4c3,0,6.5-0.6,8.3-1.6L954.6,476.5z M960.1,439.3h7.6v16.2l13.6-16.2h9.3
		l-15.5,17.8l16.1,19.9h-9.9l-13.6-17.5h-0.1V477h-7.6L960.1,439.3L960.1,439.3z"/>
</g>
</svg>
